#N canvas 537 190 450 300 12;
#X obj 83 43 notein;
#X floatatom 46 122 5 0 0 0 - - - 0;
#X floatatom 102 126 5 0 0 0 - - - 0;
#X floatatom 154 130 5 0 0 0 - - - 0;
#X obj 253 39 ctlin;
#X floatatom 229 135 5 0 0 0 - - - 0;
#X floatatom 284 135 5 0 0 0 - - - 0;
#X floatatom 337 137 5 0 0 0 - - - 0;
#X connect 0 0 1 0;
#X connect 0 1 2 0;
#X connect 0 2 3 0;
#X connect 4 0 5 0;
#X connect 4 1 6 0;
#X connect 4 2 7 0;
