#N canvas 0 0 600 400 10;
#X obj 50 50 notein;
#X obj 50 80 pack 0 0;
#X obj 50 110 print NOTE_IN;
#X obj 50 140 unpack 0 0;
#X obj 50 170 mtof;
#X obj 50 200 osc~;
#X obj 50 230 *~ 0.3;
#X obj 50 260 dac~;
#X obj 200 50 ctlin;
#X obj 200 80 pack 0 0 0;
#X obj 200 110 print CONTROL;
#X connect 0 0 1 0;
#X connect 0 1 1 1;
#X connect 1 0 2 0;
#X connect 1 0 3 0;
#X connect 3 0 4 0;
#X connect 4 0 5 0;
#X connect 5 0 6 0;
#X connect 6 0 7 0;
#X connect 6 0 7 1;
#X connect 8 0 9 0;
#X connect 8 1 9 1;
#X connect 8 2 9 2;
#X connect 9 0 10 0;