#N canvas 135 129 1475 1147 12;
#X obj 394 179 r tick;
#X obj 217 121 metro 125;
#X obj 197 176 s tick;
#X obj 205 67 tgl 19 0 empty empty empty 0 -10 0 12 #fcfcfc #000000 #000000 0 1;
#X obj 322 62 nbx 5 17 -1e+37 1e+37 0 0 empty empty empty 0 -10 0 12 #fcfcfc #000000 #000000 0 256;
#X obj 422 235 random 100;
#X obj 408 364 spigot;
#X obj 491 325 tgl 19 0 empty empty empty 0 -10 0 12 #fcfcfc #000000 #000000 0 1;
#X obj 773 1030 dac~;
#X obj 281 212 bng 19 250 50 0 empty empty empty 0 -10 0 12 #fcfcfc #000000 #000000;
#X obj 404 492 makenote;
#X obj 462 411 nbx 5 17 -1e+37 1e+37 0 0 empty empty empty 0 -10 0 12 #fcfcfc #000000 #000000 0 256;
#X obj 509 458 nbx 5 17 -1e+37 1e+37 0 0 empty empty empty 0 -10 0 12 #fcfcfc #000000 #000000 0 256;
#X obj 500 594 pack 0 0;
#X obj 748 941 expr~ tanh(4*$v1) * $v2;
#X obj 761 971 expr~ tanh(9*$v1) * $v2;
#X obj 950 828 nbx 5 17 -1e+37 1e+37 0 0 empty empty empty 0 -10 0 12 #fcfcfc #000000 #000000 0 256;
#X obj 938 897 / 100;
#X obj 557 714 bop.synth~;
#A saved osc1-wave 3;
#A saved osc1-tune 30;
#A saved osc1-pulsewidth 0.5;
#A saved osc1-gain 1;
#A saved osc2-wave 3;
#A saved osc2-tune -9;
#A saved osc2-pulsewidth 0.5;
#A saved osc2-gain 1;
#A saved noise 0.257143;
#A saved cutoff 2277;
#A saved q 0.671429;
#A saved mono 0;
#A saved slide 0.778571;
#A saved attack 0.357143;
#A saved decay 0.3;
#A saved sustain 0.664286;
#A saved release 0.592857;
#A saved gain 0.321429;
#X obj 735 128 bop.ui;
#X text 783 52 clone is poly~ WE can use poly;
#X obj 543 518 notein;
#X obj 623 581 bng 19 250 50 0 empty empty empty 0 -10 0 12 #fcfcfc #000000 #000000;
#X obj 570 640 print;
#X msg 261 425 60 \, 63 \, 68;
#X obj 1052 696 loadbang;
#X msg 927 774 100, f 8;
#X msg 1042 981 \; pd dsp 1;
#X connect 0 0 5 0;
#X connect 1 0 2 0;
#X connect 1 0 9 0;
#X connect 3 0 1 0;
#X connect 4 0 1 1;
#X connect 5 0 6 0;
#X connect 6 0 10 0;
#X connect 7 0 6 1;
#X connect 10 0 13 0;
#X connect 10 1 13 1;
#X connect 11 0 10 1;
#X connect 12 0 10 2;
#X connect 13 0 18 0;
#X connect 13 0 23 0;
#X connect 14 0 15 0;
#X connect 15 0 8 0;
#X connect 15 0 8 1;
#X connect 16 0 17 0;
#X connect 17 0 14 1;
#X connect 17 0 15 1;
#X connect 18 0 14 0;
#X connect 19 0 18 1;
#X connect 21 0 22 0;
#X connect 21 0 13 0;
#X connect 21 1 13 1;
#X connect 24 0 10 0;
#X connect 25 0 26 0;
#X connect 25 0 27 0;
#X connect 26 0 16 0;
#X connect 27 0 8 0;
